<?xml version="1.0" encoding="utf-8"?>
<!-- Generator: Adobe Illustrator 23.0.0, SVG Export Plug-In . SVG Version: 6.00 Build 0)  -->
<svg version="1.1" id="Camada_1" xmlns="http://www.w3.org/2000/svg" xmlns:xlink="http://www.w3.org/1999/xlink" x="0px" y="0px"
	 viewBox="0 0 640 480" style="enable-background:new 0 0 640 480;" xml:space="preserve">
<style type="text/css">
	.st0{font-family:'Georgia-Bold';}
	.st1{font-size:39.1934px;}
	.st2{font-family:'MVBoli';}
	.st3{font-size:41.9315px;}
	.st4{font-family:'PlantagenetCherokee';}
	.st5{font-size:17.3808px;}
	.st6{fill:none;}
</style>
<g>
	<text transform="matrix(1 0 0 1 198.9955 272.7676)" class="st0 st1">WoodWork</text>
	<text transform="matrix(1 0 0 1 181.6567 233.498)" class="st2 st3">JOHN DOE’S</text>
	<polygon points="330.45,164 325.56,155 328.8,155 320.13,139.98 311.45,155 314.44,155 309.55,164 318,164 318,170 322,170 
		322,164 	"/>
	<polygon points="305.72,165 301.74,159 304.38,159 297.33,146.8 290.29,159 292.72,159 288.74,165 295,165 295,170 299,170 
		299,165 	"/>
	<polygon points="351.26,165 347.28,159 349.92,159 342.87,146.8 335.83,159 338.26,159 334.28,165 341,165 341,170 345,170 
		345,165 	"/>
	<g>
		<path d="M472.2,207.71c0-10.11-4.53-20.92-11.52-29.37v-1.19h-1.02c-4.58-5.2-10.1-9.4-16.04-11.8l-96.41-38.93
			c-7.33-2.96-16.99-4.59-27.21-4.59c-10.22,0-19.88,1.63-27.21,4.59l-96.41,38.93c-5.94,2.4-11.46,6.59-16.04,11.8h-0.95v1.11
			c-7.03,8.46-11.59,19.31-11.59,29.45v64.23c0,10.14,4.57,20.99,11.59,29.45v0.07h0.06c4.74,5.69,10.59,10.28,16.92,12.84
			l96.41,38.93c7.33,2.96,17,4.59,27.21,4.59c10.21,0,19.88-1.63,27.21-4.59l96.41-38.93c6.33-2.56,12.18-7.16,16.92-12.84h0.13
			v-0.15c6.99-8.45,11.52-19.26,11.52-29.37V207.71z M444.62,301.46c-1.64,1.1-3.34,2.03-5.08,2.73l-96.41,38.93
			c-6.06,2.45-14.28,3.8-23.13,3.8c-8.85,0-17.06-1.35-23.13-3.8l-96.41-38.93c-1.74-0.7-3.44-1.63-5.08-2.73H444.62z M184.47,290
			c-3.56-5.64-5.77-12.07-5.77-18.06v-64.23c0-6.35,2.49-13.22,6.45-19.09h269.7c3.96,5.87,6.45,12.74,6.45,19.09v64.23
			c0,5.98-2.21,12.42-5.77,18.06H184.47z M197.04,177.15c1.12-0.65,2.26-1.22,3.42-1.69l96.41-38.93c6.06-2.45,14.27-3.8,23.13-3.8
			c8.85,0,17.07,1.35,23.13,3.8l96.41,38.93c1.16,0.47,2.3,1.04,3.42,1.69H197.04z"/>
	</g>
	<text transform="matrix(1 0 0 1 276.5522 322.1563)" class="st4 st5">Desde 1987</text>
	<g>
		<circle cx="260.36" cy="315.64" r="2.66"/>
		<circle cx="379.64" cy="315.64" r="2.66"/>
	</g>
</g>
<rect x="138.67" y="110.07" class="st6" width="363.58" height="277.78"/>
</svg>
