<?xml version="1.0" encoding="utf-8"?>
<!-- Generator: Adobe Illustrator 23.0.0, SVG Export Plug-In . SVG Version: 6.00 Build 0)  -->
<svg version="1.1" id="Camada_1" xmlns="http://www.w3.org/2000/svg" xmlns:xlink="http://www.w3.org/1999/xlink" x="0px" y="0px"
	 viewBox="0 0 640 480" style="enable-background:new 0 0 640 480;" xml:space="preserve">
<style type="text/css">
	.st0{fill:#FFFFFF;}
	.st1{font-family:'MicrosoftSansSerif';}
	.st2{font-size:78.4489px;}
	.st3{font-size:83.9294px;}
	.st4{font-family:'PlantagenetCherokee';}
	.st5{font-size:34.7891px;}
	.st6{fill:none;}
</style>
<g>
	<text transform="matrix(1.021 0 0 1 148.6788 318.8521)" class="st0 st1 st2">WoodWork</text>
	<text transform="matrix(1.021 0 0 1 78.2001 227.2511)" class="st0 st1 st3">JOHN DOE’S</text>
	<polygon class="st0" points="341.3,92.1 331.3,74.1 337.9,74.1 320.2,44.1 302.5,74.1 308.6,74.1 298.6,92.1 315.9,92.1 
		315.9,104.2 324,104.2 324,92.1 	"/>
	<polygon class="st0" points="290.8,94.1 282.6,82.1 288,82.1 273.6,57.7 259.2,82.1 264.2,82.1 256.1,94.1 268.9,94.1 268.9,104.2 
		277,104.2 277,94.1 	"/>
	<polygon class="st0" points="383.8,94.1 375.7,82.1 381.1,82.1 366.7,57.7 352.3,82.1 357.3,82.1 349.1,94.1 362.9,94.1 
		362.9,104.2 371,104.2 371,94.1 	"/>
	<g>
		<path class="st0" d="M631,179.6c0-20.2-9.3-41.9-23.5-58.8v-2.4h-2.1c-9.4-10.4-20.6-18.8-32.8-23.6l-197-77.9
			c-15-5.9-34.7-9.2-55.6-9.2s-40.6,3.3-55.6,9.2l-197,77.9C55.3,99.6,44,108,34.6,118.4h-1.9v2.2C18.3,137.5,9,159.3,9,179.5v128.7
			c0,20.3,9.3,42,23.7,58.9v0.1h0.1c9.7,11.4,21.6,20.6,34.6,25.7l197,77.9c15,5.9,34.7,9.2,55.6,9.2s40.6-3.3,55.6-9.2l197-77.9
			c12.9-5.1,24.9-14.3,34.6-25.7h0.3v-0.3c14.3-16.9,23.5-38.6,23.5-58.8V179.6L631,179.6z M574.6,367.3c-3.4,2.2-6.8,4.1-10.4,5.5
			l-197,77.9c-12.4,4.9-29.2,7.6-47.3,7.6s-34.9-2.7-47.3-7.6l-197-77.9c-3.6-1.4-7-3.3-10.4-5.5H574.6z M43,344.3
			c-7.3-11.2-11.8-24.1-11.8-36.1V179.6c0-12.7,5.1-26.5,13.2-38.2h551.1c8.1,11.7,13.2,25.5,13.2,38.2v128.6
			c0,12-4.5,24.9-11.8,36.1H43z M68.7,118.5c2.3-1.3,4.6-2.4,7-3.4l197-77.9c12.4-4.9,29.2-7.6,47.3-7.6c18.1,0,34.9,2.7,47.3,7.6
			l197,77.9c2.4,0.9,4.7,2.1,7,3.4H68.7z"/>
	</g>
	<text transform="matrix(1.021 0 0 1 231.171 408.7068)" class="st0 st4 st5">Desde 1987</text>
	<g>
		<ellipse class="st0" cx="198.1" cy="395.7" rx="5.4" ry="5.3"/>
		<ellipse class="st0" cx="441.8" cy="395.7" rx="5.4" ry="5.3"/>
	</g>
</g>
<rect x="-49" y="-20" class="st6" width="743" height="556"/>
</svg>
